<svg width="136" height="42" viewBox="0 0 136 42" fill="none" xmlns="http://www.w3.org/2000/svg">
<path d="M3.80816 32.0621C-1.26939 26.9846 -1.26939 18.7522 3.80817 13.6747L16.6794 0.803467C21.7569 5.88102 21.7569 14.1134 16.6794 19.1909L3.80816 32.0621Z" fill="#0A5AD3"/>
<path d="M47.7082 10.2268C52.7857 15.3044 52.7857 23.5367 47.7082 28.6142L34.837 41.4854C29.7594 36.4079 29.7594 28.1756 34.837 23.098L47.7082 10.2268Z" fill="#0A5AD3"/>
<path d="M4.72754 32.9813C9.80509 38.0588 18.0374 38.0588 23.115 32.9812L46.7888 9.30743C41.7112 4.22988 33.4789 4.22988 28.4014 9.30743L4.72754 32.9813Z" fill="#0A5AD3"/>
<path d="M96.3305 31.4529H91.8226L86.6744 16.5138L81.5093 31.4403H77.0015L84.6438 10.5398H88.7051L96.3305 31.4529Z" fill="white"/>
<path d="M115.609 19.092V28.529C114.084 30.5891 110.351 32.0805 106.589 31.6929C100.619 31.0652 96.7939 27.0376 96.7939 21.0342C96.7939 15.0307 100.678 10.704 106.741 10.3754C110.023 10.2237 113.06 11.18 114.981 12.7009L112.921 15.5994C111.069 14.5588 108.946 14.1007 106.829 14.285C103.425 14.403 100.855 17.213 100.855 21.0257C100.855 24.8385 103.156 27.2061 106.918 27.7117C108.978 27.9813 110.709 27.5937 111.784 26.7891V19.092H115.609Z" fill="white"/>
<path d="M136 31.4529H131.492L126.327 16.5138L121.158 31.4403H116.65L124.296 10.5398H128.349L136 31.4529Z" fill="white"/>
<path d="M58.1924 29.5123L59.839 25.881C61.8784 27.2793 64.2942 28.0364 66.7726 28.0539C69.651 28.0539 70.8235 27.0998 70.8235 25.8221C70.8235 21.9176 58.6114 24.5991 58.6114 16.8531C58.6114 13.3101 61.4899 10.3596 67.4625 10.3596C70.0997 10.3596 72.8003 10.9859 74.7517 12.2047L73.2532 15.8696C71.488 14.8338 69.4829 14.2691 67.4329 14.2305C64.5503 14.2305 63.4412 15.3064 63.4412 16.6136C63.4412 20.4592 75.6533 17.8072 75.6533 25.4649C75.6533 28.9491 72.741 31.929 66.7641 31.929C63.4116 31.929 60.0506 30.9539 58.1924 29.5123Z" fill="white"/>
<rect x="81.3025" y="25.2529" width="10.7847" height="3.08133" fill="white"/>
<rect x="120.846" y="25.2529" width="10.7847" height="3.08133" fill="white"/>
</svg>
