<svg version="1.0" xmlns="http://www.w3.org/2000/svg"
    width="225.000000pt" height="225.000000pt" viewBox="0 0 225.000000 225.000000"
    preserveAspectRatio="xMidYMid meet">

    <g transform="translate(0.000000,225.000000) scale(0.100000,-0.100000)"
        fill="#168af9" stroke="none">
        <path
            d="M1039 2047 c-107 -40 -173 -116 -188 -215 -6 -45 -6 -46 -59 -57
-113 -26 -200 -112 -222 -222 -10 -46 -9 -67 3 -117 15 -59 15 -61 -5 -76 -65
-47 -131 -119 -155 -169 -25 -50 -28 -67 -28 -161 0 -100 1 -108 34 -168 41
-75 103 -135 179 -170 54 -26 66 -27 239 -30 182 -4 183 -4 178 -25 -5 -22
-75 -437 -75 -444 0 -1 83 -3 185 -3 102 0 185 2 185 3 0 7 -70 422 -75 444
-5 21 -4 21 178 25 l183 3 65 32 c79 39 140 102 177 181 24 50 27 70 27 157 0
91 -3 105 -29 158 -26 51 -90 120 -154 167 -20 15 -20 17 -5 76 12 50 13 71 3
117 -23 112 -123 209 -232 223 -46 6 -48 8 -49 38 -2 78 -62 168 -139 210 -63
34 -163 45 -221 23z" />
    </g>
</svg>